<?xml version="1.0" standalone="no"?><!DOCTYPE svg PUBLIC "-//W3C//DTD SVG 1.1//EN" "http://www.w3.org/Graphics/SVG/1.1/DTD/svg11.dtd"><svg t="1587984403756" class="icon" viewBox="0 0 1024 1024" version="1.1" xmlns="http://www.w3.org/2000/svg" p-id="587" xmlns:xlink="http://www.w3.org/1999/xlink" width="128" height="128"><defs><style type="text/css"></style></defs><path d="M353.63 465.59c12.31000001 0 24.56 4.69 33.94 14.06L704.32 796.47c18.75 18.75 18.75 49.12 0 67.88s-49.12 18.75-67.88 0l-316.75-316.81c-18.75-18.75-18.75-49.12 0-67.87999999 9.38-9.38 21.63-14.07 33.94-14.07000001z" p-id="588"></path><path d="M670.38 145.59c12.31000001 0 24.56 4.69 33.94 14.06 18.75 18.75 18.75 49.12 0 67.88l-316.75 316.81c-18.75 18.75-49.12 18.75-67.88-1e-8s-18.75-49.12 0-67.87999999l316.75-316.8c9.38-9.38 21.63-14.07 33.94-14.07z" p-id="589"></path></svg>