<?xml version="1.0" standalone="no"?><!DOCTYPE svg PUBLIC "-//W3C//DTD SVG 1.1//EN" "http://www.w3.org/Graphics/SVG/1.1/DTD/svg11.dtd"><svg t="1587972529513" class="icon" viewBox="0 0 1024 1024" version="1.1" xmlns="http://www.w3.org/2000/svg" p-id="5621" xmlns:xlink="http://www.w3.org/1999/xlink" width="128" height="128"><defs><style type="text/css"></style></defs><path d="M670.37 558.41c-12.31 0-24.56-4.69-33.94-14.06L319.68 227.53c-18.75-18.75-18.75-49.12 0-67.88s49.12-18.75 67.88 0l316.75 316.81c18.75 18.75 18.75 49.12 0 67.88-9.38 9.38-21.63 14.07-33.94 14.07z" fill="#131414" p-id="5622"></path><path d="M353.62 878.41c-12.31 0-24.56-4.69-33.94-14.06-18.75-18.75-18.75-49.12 0-67.88l316.75-316.81c18.75-18.75 49.12-18.75 67.88 0s18.75 49.12 0 67.88l-316.75 316.8c-9.38 9.38-21.63 14.07-33.94 14.07z" fill="#131414" p-id="5623"></path></svg>