<?xml version="1.0" standalone="no"?><!DOCTYPE svg PUBLIC "-//W3C//DTD SVG 1.1//EN" "http://www.w3.org/Graphics/SVG/1.1/DTD/svg11.dtd"><svg t="1588520546358" class="icon" viewBox="0 0 1200 1024" version="1.1" xmlns="http://www.w3.org/2000/svg" p-id="13866" xmlns:xlink="http://www.w3.org/1999/xlink" width="150" height="128"><defs><style type="text/css"></style></defs><path d="M1145.82069 628.77131a387.001379 387.001379 0 0 0-76.941242-116.736V139.687724a134.603034 134.603034 0 0 0-134.532414-134.320552H266.20469a134.603034 134.603034 0 0 0-134.532414 134.320552V512a387.10731 387.10731 0 0 0-76.976552 116.77131 382.799448 382.799448 0 0 0-30.508138 150.422069v206.848a32.485517 32.485517 0 0 0 36.369655 32.344276H258.824828a32.485517 32.485517 0 0 0 32.379586-32.626758 32.485517 32.485517 0 0 0-32.379586-32.591449H88.911448V788.833103h1022.728828v164.334345h-170.866759a32.485517 32.485517 0 0 0-32.344276 32.591449c0 18.008276 14.477241 32.626759 32.344276 32.626758h199.220966a32.485517 32.485517 0 0 0 36.369655-32.344276v-206.88331c0-52.047448-10.24-102.647172-30.543448-150.386759zM196.396138 139.723034a69.561379 69.561379 0 0 1 69.808552-69.137655h668.142344a69.561379 69.561379 0 0 1 69.808552 69.102345v317.828414a385.694897 385.694897 0 0 0-36.369655-21.574621 32.061793 32.061793 0 0 0 0.105931-2.189241V308.612414a83.403034 83.403034 0 0 0-83.120552-83.473655h-189.298758a83.403034 83.403034 0 0 0-83.120552 83.473655v83.650207h-13.34731V308.612414a83.403034 83.403034 0 0 0-83.155862-83.473655H326.62069A83.403034 83.403034 0 0 0 243.394207 308.612414v121.92662c-16.278069 7.874207-32.026483 16.878345-47.033379 26.977104v-317.793104zM903.168 308.612414v100.669793a381.704828 381.704828 0 0 0-113.204966-17.019586h-112.887172V308.612414c0-9.886897 8.403862-18.220138 18.361379-18.220138h189.334069c9.957517 0 18.361379 8.333241 18.36138 18.220138z m-368.887172 0v83.650207h-123.692138c-34.957241 0-69.208276 4.660966-102.4 13.876965V308.612414c0-9.886897 8.403862-18.220138 18.361379-18.220138h189.298759c9.992828 0 18.432 8.333241 18.432 18.220138zM93.713655 723.614897a320.052966 320.052966 0 0 1 89.652966-171.537656 319.346759 319.346759 0 0 1 227.222069-94.596413h379.374344c85.556966 0 166.276414 33.580138 227.222069 94.631724a320.088276 320.088276 0 0 1 89.652966 171.502345H93.713655z m708.890483 157.236965H397.947586a32.485517 32.485517 0 0 0-32.344276 32.626759c0 18.008276 14.477241 32.626759 32.344276 32.626758h404.656552a32.485517 32.485517 0 0 0 32.344276-32.626758 32.485517 32.485517 0 0 0-32.344276-32.626759z" fill="#38BFD4" p-id="13867"></path></svg>