<?xml version="1.0" standalone="no"?><!DOCTYPE svg PUBLIC "-//W3C//DTD SVG 1.1//EN" "http://www.w3.org/Graphics/SVG/1.1/DTD/svg11.dtd"><svg t="1588520152103" class="icon" viewBox="0 0 1024 1024" version="1.1" xmlns="http://www.w3.org/2000/svg" p-id="7484" xmlns:xlink="http://www.w3.org/1999/xlink" width="128" height="128"><defs><style type="text/css"></style></defs><path d="M733.2 640.1c-68.7 0-124.7 55.9-124.7 124.7s55.9 124.7 124.7 124.7c68.7 0 124.6-55.9 124.6-124.7s-55.9-124.7-124.6-124.7z m0 201.3c-42.3 0-76.7-34.4-76.7-76.7s34.4-76.7 76.7-76.7c42.3 0 76.6 34.4 76.6 76.7s-34.3 76.7-76.6 76.7zM654.9 442h178.9c62.6 0 113.5-50.9 113.5-113.5V239c0-62.6-50.9-113.5-113.5-113.5H654.9c-62.6 0-113.5 50.9-113.5 113.5v89.5c0.1 62.6 51 113.5 113.5 113.5z m-65.4-202.9c0-36.1 29.4-65.5 65.5-65.5h178.9c36.1 0 65.5 29.4 65.5 65.5v89.5c0 36.1-29.4 65.5-65.5 65.5h-179c-36.1 0-65.5-29.4-65.5-65.5v-89.5zM308.2 640.1c-68.7 0-124.7 55.9-124.7 124.7s55.9 124.7 124.7 124.7 124.7-55.9 124.7-124.7S377 640.1 308.2 640.1z m0 201.3c-42.3 0-76.7-34.4-76.7-76.7s34.4-76.7 76.7-76.7 76.7 34.4 76.7 76.7-34.4 76.7-76.7 76.7zM579 707.2H467.7c-13.3 0-24 10.7-24 24s10.7 24 24 24H579c13.3 0 24-10.7 24-24s-10.8-24-24-24z" fill="#333333" p-id="7485"></path><path d="M912.6 509.2c-36.1-32.1-84.3-49.7-135.6-49.7-28.4 0-57.2 6-83.4 17.5-25.4 11.1-48.4 27.3-66.7 46.9-0.8 0.8-1.7 1.6-2.7 2.3-5.2 4.1-10.9 6.4-15.9 6.4H475.4c-50.6 0-94.8-30.6-110.1-76.2-4.6-13.7-5.8-29-3.4-44.1l4.1-26.1 14.5-80.3c2.5-14.1-0.2-28.3-7.7-39.9-7.2-11.2-18.9-17.9-30.5-21.6-15.1-4.9-30.6 6.3-30.5 22.2v0.9c0 10.4 7 19.4 17 22.4 1.7 0.5 3.1 1.2 3.6 2.1 0.9 1.4 1.2 3.4 0.8 5.5l-14.6 80.6c0 0.2-0.1 0.4-0.1 0.5l-4.1 26.3c-3.6 22.7-1.7 45.9 5.3 66.9 21.9 65.2 84.4 108.9 155.6 108.9h132.8c15.7 0 31.8-5.9 45.5-16.6 2.5-1.9 4.8-4 7-6.1l0.8-0.8c28.8-31 72-49.5 115.5-49.5 39.5 0 76.4 13.4 103.7 37.6 26.4 23.5 41 54.6 41 87.7v19.1c0 21.5-12 40.5-31.4 49.7-12 5.7-17.7 20.3-12 32.3 4.1 8.6 12.7 13.7 21.7 13.7 3.4 0 6.8-0.7 10.1-2.2 36.8-17.1 59.6-52.9 59.6-93.5V633c0.1-47.3-20.2-91.1-57-123.8z" fill="#333333" p-id="7486"></path><path d="M164 693.5c-3.8-0.9-7.6-2.3-11.3-4-20-9.6-33-30.5-33-53.5v-2c0-4.5 0.5-9 1.5-13.3l92-402.3c0-0.1 0.1-0.2 0.1-0.3 8.4-39.5 42.5-43.8 56.7-43.8h58.9c28.6 0 34.6 22.9 34.6 42.1 0 13.3 10.7 24 24 24s24-10.7 24-24c0-21.7-5.2-51.8-29.8-72-19.2-15.7-41.3-18.1-52.8-18.1H270c-24.9 0-47.5 7.1-65.6 20.5-19.4 14.4-32.6 35.6-38.1 61.1L74.5 610c-1.8 7.9-2.7 16-2.7 24v2c0 41.3 23.7 79.3 60.3 96.8 6.7 3.2 13.6 5.7 20.7 7.4 1.9 0.5 3.8 0.7 5.6 0.7 10.8 0 20.7-7.4 23.3-18.4 3.1-13-4.8-25.9-17.7-29z" fill="#333333" p-id="7487"></path></svg>