<?xml version="1.0" standalone="no"?><!DOCTYPE svg PUBLIC "-//W3C//DTD SVG 1.1//EN" "http://www.w3.org/Graphics/SVG/1.1/DTD/svg11.dtd"><svg t="1588521263955" class="icon" viewBox="0 0 1024 1024" version="1.1" xmlns="http://www.w3.org/2000/svg" p-id="23379" xmlns:xlink="http://www.w3.org/1999/xlink" width="128" height="128"><defs><style type="text/css"></style></defs><path d="M302.4896 449.61792c-14.41792-6.7584-35.59424-13.96736-59.47392-20.2752-23.87968-6.30784-45.95712-10.36288-61.72672-11.71456-10.81344-0.90112-16.22016-1.35168-16.67072 0-0.45056 0.90112 4.5056 3.60448 14.41792 8.11008 14.41792 6.7584 35.59424 13.96736 59.47392 20.2752 23.87968 6.30784 45.95712 10.36288 61.72672 11.71456 10.81344 0.90112 16.22016 1.35168 16.67072 0 0-0.90112-4.5056-3.60448-14.41792-8.11008z m487.95648 118.04672V534.3232h113.99168v304.57856h-113.99168V791.1424l-146.432-56.32-339.72224 41.90208-188.78464-97.32096 5.85728-35.59424-25.23136-20.72576 3.60448-37.84704-3.60448-16.22016 14.86848-56.32 229.7856 73.44128 179.77344-48.66048-0.45056-13.96736H379.0848l28.38528-68.03456 255.01696-40.5504 115.34336 148.6848 12.61568 4.05504z m-543.82592-152.28928c25.23136 6.7584 47.75936 14.41792 63.97952 22.07744 13.96736 6.30784 23.87968 13.06624 27.93472 19.82464 2.2528 3.60448 2.70336 6.30784 1.80224 9.46176-3.60448 13.96736-7.65952 28.83584-11.264 42.8032-2.2528 4.5056-3.60448 6.30784-7.20896 7.65952-30.18752 13.96736-172.11392-21.17632-191.488-50.91328-2.2528-3.60448-3.15392-5.85728-2.2528-9.91232 3.60448-13.96736 7.65952-28.83584 11.264-42.8032 0.90112-3.15392 2.2528-4.95616 5.85728-7.20896 6.7584-3.60448 18.92352-4.95616 34.24256-3.60448 18.47296 1.80224 41.90208 5.85728 67.13344 12.61568z m149.13536-35.59424c-4.95616-15.31904-14.41792-35.59424-26.13248-57.22112-11.71456-21.62688-23.87968-40.5504-33.792-53.16608-6.7584-8.56064-10.36288-12.61568-11.264-12.16512-0.90112 0.45056 0.45056 5.40672 4.05504 16.22016 4.95616 15.31904 14.41792 35.59424 26.13248 57.22112 11.71456 21.62688 23.87968 40.5504 33.792 53.16608 6.7584 8.56064 10.36288 12.61568 11.264 12.16512 0.90112-0.45056-0.90112-5.40672-4.05504-16.22016z m-13.5168-63.97952c12.61568 22.97856 22.07744 44.60544 27.93472 61.72672 4.95616 14.41792 6.7584 26.13248 4.5056 33.792a11.9808 11.9808 0 0 1-5.40672 8.11008c-12.61568 6.7584-26.13248 14.41792-39.19872 21.17632-4.95616 1.80224-6.7584 1.80224-10.36288 0-30.63808-12.61568-102.27712-139.6736-94.16704-173.91616 0.90112-4.5056 1.80224-6.30784 5.85728-8.11008 12.61568-6.7584 26.13248-14.41792 39.19872-21.17632a11.38688 11.38688 0 0 1 9.46176-0.45056c7.65952 2.2528 16.67072 10.36288 26.13248 22.528 10.81344 13.5168 23.87968 33.34144 36.0448 56.32z m91.46368-115.34336c-7.65952 12.16512-16.22016 30.18752-24.33024 50.46272-8.11008 20.72576-13.96736 39.19872-17.12128 53.16608-2.2528 9.46176-2.70336 14.41792-1.80224 14.41792 0.90112 0.45056 3.60448-3.60448 8.56064-11.71456 7.65952-12.16512 16.22016-30.18752 24.33024-50.46272 8.11008-20.2752 13.96736-39.19872 17.12128-53.16608 2.2528-9.46176 2.70336-14.41792 1.80224-14.41792-0.90112-0.45056-3.60448 3.15392-8.56064 11.71456z m-36.49536 45.95712c-8.56064 21.62688-14.86848 41.90208-18.0224 57.22112-2.70336 13.5168-3.15392 24.33024-0.45056 30.63808 1.35168 3.15392 2.70336 4.95616 5.85728 5.85728 12.16512 4.95616 24.7808 9.91232 36.94592 14.86848 3.60448 1.35168 5.40672 0.90112 9.0112-0.90112 27.93472-13.96736 74.3424-135.61856 65.78176-163.55328-0.90112-3.15392-2.2528-4.5056-5.85728-7.20896-12.16512-4.95616-24.7808-9.91232-36.94592-14.86848-2.70336-1.35168-5.40672-0.90112-8.56064 0.45056-6.30784 3.15392-13.5168 10.81344-20.72576 22.528-9.0112 13.96736-18.47296 33.34144-27.0336 54.96832z" p-id="23380"></path></svg>