<?xml version="1.0" standalone="no"?><!DOCTYPE svg PUBLIC "-//W3C//DTD SVG 1.1//EN" "http://www.w3.org/Graphics/SVG/1.1/DTD/svg11.dtd"><svg t="1588520854422" class="icon" viewBox="0 0 1024 1024" version="1.1" xmlns="http://www.w3.org/2000/svg" p-id="21159" xmlns:xlink="http://www.w3.org/1999/xlink" width="128" height="128"><defs><style type="text/css"></style></defs><path d="M692.5 615.1c-9.8 1.2-16.7 10.2-15.5 20 0.7 5.3 14.5 129.1-120.3 176.5-9.4 3.2-14.3 13.5-11 22.8 2.6 7.4 9.5 12 16.9 12 2 0 4-0.3 5.9-1 162.8-57.2 144.2-213.3 144-214.9-1.2-9.8-10.4-16.7-20-15.4z" fill="#4E65A8" p-id="21160"></path><path d="M763.6 450.6c-0.3-0.9-0.7-1.7-1.2-2.5l-0.3-0.6-0.1 0.1c-3.1-5.2-8.6-8.9-15.1-8.9-9.9 0-17.9 8-17.9 17.9 0 3.1 1 5.9 2.4 8.4l-0.2 0.1c34.8 70.1 59.4 135.5 59.4 180.8 0 153.5-124.9 278.4-278.4 278.4S233.6 799.5 233.6 645.9c0-135.7 219.5-451.3 278.4-533.6 27.7 38.6 90.7 128.6 149.7 227.2l0.3-0.2c3.1 5.3 8.6 9 15.2 9 9.9 0 17.9-8 17.9-17.9 0-3.2-1-6-2.5-8.5l0.2-0.1c-77.1-129.2-160.1-242-166.5-250.7-6.8-9.1-22.1-9.1-28.8 0C485.2 87.6 197.6 478.3 197.6 646c0 173.3 141 314.3 314.3 314.3s314.3-141 314.3-314.3c0.1-50.4-26-121-62.6-195.4z" fill="#4E65A8" p-id="21161"></path></svg>