<?xml version="1.0" standalone="no"?><!DOCTYPE svg PUBLIC "-//W3C//DTD SVG 1.1//EN" "http://www.w3.org/Graphics/SVG/1.1/DTD/svg11.dtd"><svg t="1588521317856" class="icon" viewBox="0 0 1024 1024" version="1.1" xmlns="http://www.w3.org/2000/svg" p-id="24385" xmlns:xlink="http://www.w3.org/1999/xlink" width="128" height="128"><defs><style type="text/css"></style></defs><path d="M801.523 0.006H222.477c-69.081 0-125.282 56.202-125.282 125.282v773.423c0 69.082 56.202 125.283 125.282 125.283h579.046c69.08 0 125.281-56.201 125.281-125.283V125.288C926.805 56.208 870.604 0.006 801.523 0.006z m45.126 898.705c0 24.884-20.243 45.127-45.126 45.127H222.477c-24.883 0-45.126-20.243-45.126-45.127V432.627l0.424 0.245a636.814 636.814 0 0 0 5.945 3.438c0.717 0.409 1.438 0.813 2.157 1.221a673.064 673.064 0 0 0 6.759 3.774c1.481 0.814 2.965 1.622 4.453 2.424 0.712 0.385 1.423 0.771 2.137 1.153a611.561 611.561 0 0 0 6.515 3.438l0.317 0.164a668.324 668.324 0 0 0 6.312 3.229c0.726 0.366 1.454 0.728 2.181 1.091a626.198 626.198 0 0 0 11.613 5.664c0.722 0.342 1.441 0.688 2.164 1.027a637.51 637.51 0 0 0 6.705 3.112l0.264 0.118c2.189 0.998 4.387 1.982 6.589 2.957 0.729 0.323 1.461 0.64 2.191 0.96 1.582 0.692 3.166 1.381 4.754 2.062a622.606 622.606 0 0 0 7.269 3.06c0.719 0.299 1.437 0.599 2.158 0.895a652.086 652.086 0 0 0 13.971 5.538c0.725 0.277 1.453 0.551 2.179 0.825a586.599 586.599 0 0 0 7.411 2.759 686.45 686.45 0 0 0 4.99 1.799c0.734 0.262 1.467 0.525 2.203 0.784 2.374 0.837 4.752 1.663 7.14 2.474a659.878 659.878 0 0 0 30.021 9.387c7.242 96.304 87.673 172.188 185.829 172.188s178.587-75.885 185.829-172.188a659.485 659.485 0 0 0 30.021-9.387 653.107 653.107 0 0 0 7.141-2.474c0.735-0.259 1.468-0.522 2.202-0.784a657.5 657.5 0 0 0 4.99-1.799c0.818-0.3 1.637-0.6 2.454-0.902a599.821 599.821 0 0 0 4.956-1.857 514.985 514.985 0 0 0 9.182-3.551l0.004-0.002a620.761 620.761 0 0 0 6.963-2.811c0.722-0.296 1.439-0.596 2.158-0.895a646.748 646.748 0 0 0 7.268-3.059c1.591-0.682 3.176-1.37 4.76-2.063 0.729-0.32 1.461-0.637 2.188-0.959a671.366 671.366 0 0 0 6.589-2.957l0.264-0.118a637.51 637.51 0 0 0 6.705-3.112c0.723-0.34 1.442-0.686 2.164-1.027a705.276 705.276 0 0 0 4.639-2.226c0.801-0.39 1.602-0.779 2.402-1.172a625.974 625.974 0 0 0 4.571-2.266c0.728-0.363 1.456-0.725 2.181-1.091a653.206 653.206 0 0 0 6.294-3.22l0.356-0.184a617.222 617.222 0 0 0 6.493-3.427c0.714-0.383 1.425-0.77 2.138-1.154a580.33 580.33 0 0 0 11.212-6.198c0.719-0.407 1.439-0.812 2.157-1.221a646.372 646.372 0 0 0 5.945-3.438l0.423-0.245v466.085zM593.801 475.624v28.529h-62.396v18.587h62.396v27.256h-62.396v59.85h-38.717v-59.85h-61.123V522.74h61.123v-18.587h-61.123v-28.529h45.755l-63.669-99.325h44.399l54.634 91.056 54.633-91.056h43.033l-62.396 99.325h45.847z m252.848-138.438l-0.693 0.492a521.377 521.377 0 0 1-7.87 5.483c-0.372 0.255-0.746 0.506-1.119 0.759a539.843 539.843 0 0 1-8.118 5.415l-0.916 0.592a533.175 533.175 0 0 1-8.476 5.408c-0.175 0.109-0.352 0.216-0.525 0.324a555.289 555.289 0 0 1-8.586 5.238c-0.177 0.105-0.352 0.213-0.529 0.318a542.715 542.715 0 0 1-8.648 5.041c-0.342 0.195-0.68 0.393-1.021 0.587a540.696 540.696 0 0 1-8.432 4.692c-0.449 0.245-0.898 0.493-1.348 0.736a560.924 560.924 0 0 1-9.875 5.226 551.969 551.969 0 0 1-9.957 5.016 563.491 563.491 0 0 1-18.515 8.688c-0.529 0.236-1.061 0.47-1.592 0.705a567.754 567.754 0 0 1-8.688 3.772c-0.471 0.199-0.941 0.395-1.411 0.592a568.682 568.682 0 0 1-8.989 3.696c-0.358 0.145-0.719 0.283-1.076 0.426a560.289 560.289 0 0 1-9.929 3.852 578.712 578.712 0 0 1-9.269 3.4c-0.359 0.128-0.717 0.26-1.076 0.387a564.582 564.582 0 0 1-9.233 3.188c-0.481 0.162-0.961 0.326-1.442 0.487a557.923 557.923 0 0 1-9.076 2.938c-0.555 0.176-1.109 0.353-1.664 0.525-0.77 0.241-1.547 0.465-2.318 0.703-26.695-70.25-94.64-120.183-174.258-120.183s-147.562 49.933-174.256 120.188c-0.772-0.238-1.548-0.462-2.318-0.703-0.555-0.173-1.109-0.35-1.664-0.525a564.49 564.49 0 0 1-9.075-2.938c-0.482-0.161-0.962-0.325-1.443-0.487a577.733 577.733 0 0 1-9.234-3.188c-0.359-0.127-0.717-0.259-1.076-0.387a582.283 582.283 0 0 1-9.269-3.4l-0.719-0.271a560.289 560.289 0 0 1-9.21-3.581c-0.358-0.143-0.718-0.281-1.076-0.426a568.682 568.682 0 0 1-8.989-3.696c-0.469-0.197-0.941-0.393-1.411-0.592a572.192 572.192 0 0 1-8.689-3.772c-0.53-0.235-1.062-0.469-1.591-0.705a564.536 564.536 0 0 1-10.155-4.664 563.491 563.491 0 0 1-18.316-9.04c-0.518-0.268-1.033-0.537-1.55-0.806a555.83 555.83 0 0 1-8.326-4.42c-0.45-0.243-0.898-0.491-1.348-0.736a548.952 548.952 0 0 1-8.431-4.692c-0.341-0.194-0.681-0.392-1.021-0.587a547.287 547.287 0 0 1-8.649-5.041c-0.177-0.105-0.352-0.213-0.529-0.318a558.253 558.253 0 0 1-8.585-5.238c-0.175-0.108-0.351-0.215-0.526-0.324a537.752 537.752 0 0 1-8.476-5.408l-0.916-0.592a539.936 539.936 0 0 1-8.119-5.415c-0.373-0.253-0.747-0.504-1.119-0.759a536.34 536.34 0 0 1-7.87-5.483c-0.231-0.164-0.463-0.327-0.694-0.492V125.288c0-24.883 20.244-45.126 45.126-45.126h579.046c24.883 0 45.126 20.243 45.126 45.126v211.898z" p-id="24386"></path></svg>