<?xml version="1.0" standalone="no"?><!DOCTYPE svg PUBLIC "-//W3C//DTD SVG 1.1//EN" "http://www.w3.org/Graphics/SVG/1.1/DTD/svg11.dtd"><svg t="1588520399097" class="icon" viewBox="0 0 1059 1024" version="1.1" xmlns="http://www.w3.org/2000/svg" p-id="9572" xmlns:xlink="http://www.w3.org/1999/xlink" width="132.375" height="128"><defs><style type="text/css"></style></defs><path d="M973.91616 440.32c-92.93312-103.62368-219.79136-176.14848-363.35616-199.19872-27.77088-42.12224-75.392-70.01088-129.61792-70.01088-26.18368 0-50.47296 7.08096-72.09472 18.54464C351.87712 121.38496 266.18368 77.9264 170.32704 77.9264c-10.58816 0-20.74624 1.49504-31.05792 2.54976v30.99648c10.28096-1.14688 20.50048-2.4832 31.05792-2.4832 85.07904 0 161.05472 38.17472 212.24448 98.15552C348.08832 235.62752 325.632 278.17984 325.632 326.42048c0 21.89824 4.62848 42.70592 12.8256 61.5936l-268.58496 280.08448H46.08v279.552h18.26304l4.25472 15.93344L977.92 719.90272V439.26528l-4.00384 1.05472zM401.26976 231.808c13.29664 19.56864 24.32 40.84736 32.36352 63.55456h33.0496c-9.10336-28.98432-22.51776-56.00256-39.19872-80.63488 16.24576-7.82848 34.2272-12.54912 53.45792-12.54912 68.61312 0 124.24704 55.6288 124.24704 124.24704s-55.6288 124.24704-124.24704 124.24704-124.24704-55.6288-124.24704-124.24704c0-38.14912 17.54624-71.81824 44.57472-94.6176z m-46.72 184.31488c28.13952 39.57248 74.14272 65.60256 126.39232 65.60256 85.76 0 155.29984-69.54496 155.29984-155.30496 0-17.82784-3.63008-34.69312-9.15456-50.63168 122.22464 24.28928 230.6304 86.4768 313.0368 173.60384L109.1328 672.04096l245.41696-255.91808zM77.13792 929.13152v-216.34048l869.71904-233.05216v216.34048L77.13792 929.13152z" p-id="9573"></path></svg>