<?xml version="1.0" standalone="no"?><!DOCTYPE svg PUBLIC "-//W3C//DTD SVG 1.1//EN" "http://www.w3.org/Graphics/SVG/1.1/DTD/svg11.dtd"><svg t="1588520218196" class="icon" viewBox="0 0 1024 1024" version="1.1" xmlns="http://www.w3.org/2000/svg" p-id="7631" xmlns:xlink="http://www.w3.org/1999/xlink" width="128" height="128"><defs><style type="text/css"></style></defs><path d="M743.826273 416.829861c12.847969-38.64624 34.471034-53.182711 72.017189-49.207055 35.397152 3.745405 71.500405 0.690751 107.29154 0.885185 24.841453 0.133034 42.074412 12.310718 51.407225 34.982701 12.448868 30.234428 0.173967 54.87633-32.229931 57.260701-24.672603 1.816419-32.649498 13.728037-39.01464 34.726868-43.389397 143.098026-87.817479 285.878819-132.13811 429.493629-166.517044 0-332.517304 0-499.996282 0-27.36909-88.67708-54.717713-177.195543-82.010053-265.734473-17.775326-57.670034-35.995803-115.212152-52.855244-173.148254-4.89154-16.798041-13.60012-22.912467-30.710278-23.587868-37.715005-1.488952-50.317374-12.500035-49.918273-40.007275 0.429801-29.482277 22.886884-53.622745 53.586928-53.766012 132.941428-0.614001 265.90844-1.494069 398.788467 1.412202 14.684855 0.32235 28.858042 24.247919 43.266597 37.223805-1.683386 3.151871-3.366772 6.298626-5.050157 9.450497-9.680748 0-19.361495 0-29.042243 0-108.227892 0-216.455784-0.035817-324.683676 0.020467-36.558637 0.020467-37.970839 1.688502-27.819357 35.228302 41.112477 135.837466 82.798021 271.506081 123.148114 407.573797 6.006975 20.24668 15.774706 26.054105 36.098136 25.926188 130.377974-0.834018 260.771299-0.782851 391.15439-0.040933 19.637795 0.112567 28.453825-6.375376 34.164033-25.378704 41.312027-137.515735 83.826473-274.673302 125.829251-411.979253 8.580663-28.039374 6.431659-31.017279-22.641283-31.262879C816.81563 416.604727 781.157528 416.829861 743.826273 416.829861z" p-id="7632"></path><path d="M652.288972 430.07693c-28.781292-47.155269-56.56995-92.683436-83.959506-137.556668 2.374137-2.55322 3.341188-4.56919 4.436156-4.635707 36.640504-2.36902 36.64562-2.343437 36.650737-38.364823 0.005117-43.317763 0-86.635527 0-132.07671 28.643142 0 55.336831 0 85.740109 0 0 42.140928 0 84.425124 0 126.714436 0 41.24551 0 41.24551 43.205197 44.632749C709.314306 336.47761 681.285165 382.486744 652.288972 430.07693z" p-id="7633"></path><path d="M471.557807 624.858482c-51.018358-0.005117-102.057183-0.874951-153.044841 0.388867-23.009684 0.573068-26.442972-11.435767-27.072323-29.89161-0.690751-20.328546 10.008215-23.393434 27.16954-23.301334 100.332864 0.511667 200.675961 0.747034 301.003708-0.179084 19.540579-0.179084 28.965492 6.349793 29.303193 25.342887 0.347934 19.653145-8.043412 28.617559-29.41576 28.054724C570.217519 623.973297 520.872313 624.863599 471.557807 624.858482z" p-id="7634"></path><path d="M532.302963 768.104892c-40.007275 0-80.045251-0.926118-120.011592 0.383751-20.533213 0.670284-24.585619-9.348164-24.268386-26.381572 0.301884-16.327307 3.075121-27.179773 24.027902-26.934173 80.853685 0.951701 161.73807 1.038685 242.586639-0.0614 21.029531-0.286534 24.677719 11.36925 24.652136 26.739739-0.025583 15.176056-3.233738 27.502124-24.427002 26.698806C614.0623 767.01504 573.164723 768.104892 532.302963 768.104892z" p-id="7635"></path></svg>