<?xml version="1.0" standalone="no"?><!DOCTYPE svg PUBLIC "-//W3C//DTD SVG 1.1//EN" "http://www.w3.org/Graphics/SVG/1.1/DTD/svg11.dtd"><svg t="1588512689521" class="icon" viewBox="0 0 1024 1024" version="1.1" xmlns="http://www.w3.org/2000/svg" p-id="1143" xmlns:xlink="http://www.w3.org/1999/xlink" width="128" height="128"><defs><style type="text/css"></style></defs><path d="M281.6 573.44c-112.64 0-204.8-92.16-204.8-204.8V102.4c0-15.36 10.24-25.6 25.6-25.6s25.6 10.24 25.6 25.6v266.24c0 84.48 69.12 153.6 153.6 153.6s153.6-69.12 153.6-153.6V102.4c0-15.36 10.24-25.6 25.6-25.6s25.6 10.24 25.6 25.6v266.24c-2.56 112.64-94.72 204.8-204.8 204.8z" p-id="1144"></path><path d="M212.48 396.8c-10.24 0-20.48-7.68-20.48-20.48V102.4c0-10.24 7.68-20.48 20.48-20.48 10.24 0 20.48 7.68 20.48 20.48v276.48c0 10.24-10.24 17.92-20.48 17.92zM348.16 396.8c-10.24 0-20.48-7.68-20.48-20.48V102.4c0-10.24 7.68-20.48 20.48-20.48s20.48 7.68 20.48 20.48v276.48c-2.56 10.24-10.24 17.92-20.48 17.92zM281.6 947.2c-15.36 0-25.6-10.24-25.6-25.6V547.84c0-15.36 10.24-25.6 25.6-25.6s25.6 10.24 25.6 25.6V921.6c0 15.36-12.8 25.6-25.6 25.6zM742.4 947.2c-17.92 0-35.84-7.68-48.64-20.48s-20.48-30.72-17.92-51.2l12.8-330.24c-87.04-28.16-148.48-120.32-148.48-230.4 0-133.12 92.16-238.08 204.8-238.08s204.8 107.52 204.8 238.08c0 107.52-61.44 202.24-148.48 230.4l12.8 330.24c0 17.92-5.12 35.84-17.92 51.2-15.36 12.8-33.28 20.48-53.76 20.48z m0-819.2c-84.48 0-153.6 84.48-153.6 186.88 0 92.16 56.32 171.52 128 184.32 12.8 2.56 20.48 12.8 20.48 25.6l-12.8 350.72c0 5.12 2.56 10.24 5.12 12.8 7.68 7.68 17.92 7.68 25.6 0 2.56-2.56 5.12-7.68 5.12-12.8l-12.8-350.72c0-12.8 7.68-23.04 20.48-25.6 74.24-15.36 128-94.72 128-184.32 0-102.4-69.12-186.88-153.6-186.88z" p-id="1145"></path><path d="M862.72 281.6c-7.68 0-15.36-5.12-17.92-12.8-10.24-35.84-33.28-64-61.44-76.8-10.24-5.12-12.8-15.36-10.24-25.6 5.12-10.24 15.36-12.8 25.6-10.24 38.4 17.92 69.12 53.76 81.92 99.84 2.56 10.24-2.56 20.48-12.8 23.04-2.56 2.56-2.56 2.56-5.12 2.56z" p-id="1146"></path></svg>